<svg viewBox="0 0 200 220" xmlns="http://www.w3.org/2000/svg">
  <!-- Top pyramid -->
  <polygon points="100,15 135,55 100,75 65,55" fill="white" stroke="black" stroke-width="3" stroke-linejoin="round"/>
  
  <!-- Upper left triangle -->
  <polygon points="65,55 40,95 65,115" fill="white" stroke="black" stroke-width="3" stroke-linejoin="round"/>
  
  <!-- Upper right triangle -->
  <polygon points="135,55 160,95 135,115" fill="white" stroke="black" stroke-width="3" stroke-linejoin="round"/>
  
  <!-- Upper middle-left quad -->
  <polygon points="65,55 100,75 100,115 65,115" fill="white" stroke="black" stroke-width="3" stroke-linejoin="round"/>
  
  <!-- Upper middle-right quad -->
  <polygon points="135,55 100,75 100,115 135,115" fill="white" stroke="black" stroke-width="3" stroke-linejoin="round"/>
  
  <!-- Left side quad -->
  <polygon points="40,95 25,135 65,155 65,115" fill="white" stroke="black" stroke-width="3" stroke-linejoin="round"/>
  
  <!-- Right side quad -->
  <polygon points="160,95 175,135 135,155 135,115" fill="white" stroke="black" stroke-width="3" stroke-linejoin="round"/>
  
  <!-- Lower left triangles -->
  <polygon points="65,115 65,155 85,135" fill="white" stroke="black" stroke-width="3" stroke-linejoin="round"/>
  <polygon points="25,135 65,155 45,175" fill="white" stroke="black" stroke-width="3" stroke-linejoin="round"/>
  
  <!-- Lower right triangles -->
  <polygon points="135,115 135,155 115,135" fill="white" stroke="black" stroke-width="3" stroke-linejoin="round"/>
  <polygon points="175,135 135,155 155,175" fill="white" stroke="black" stroke-width="3" stroke-linejoin="round"/>
  
  <!-- Bottom center triangles -->
  <polygon points="85,135 115,135 100,155" fill="white" stroke="black" stroke-width="3" stroke-linejoin="round"/>
  <polygon points="45,175 155,175 100,205" fill="white" stroke="black" stroke-width="3" stroke-linejoin="round"/>
  
  <!-- Bottom point connection -->
  <polygon points="65,155 135,155 100,155" fill="white" stroke="black" stroke-width="3" stroke-linejoin="round"/>
</svg>
