<?xml version="1.0" encoding="UTF-8"?>
<svg xmlns="http://www.w3.org/2000/svg" xmlns:xlink="http://www.w3.org/1999/xlink" version="1.1" id="Layer_1" x="0px" y="0px" width="542.969px" height="626.967px" viewBox="0 0 542.969 626.967" xml:space="preserve">
<path id="_x23_000000" d="M271.485,0L0,156.742v313.483l271.485,156.742l271.484-156.742V156.742L271.485,0z M278.328,22.626  l221.618,127.952l-221.618-25.032V22.626z M524.976,167.178l-95.739,224.031L284.191,139.981L524.976,167.178z M418.301,399.638  H124.669l146.816-254.293L418.301,399.638z M264.642,22.626v102.92L43.023,150.578L264.642,22.626z M258.779,139.981L113.732,391.21  L17.993,167.178L258.779,139.981z M16.174,197.747l87.942,205.785l-87.942,49.606V197.747z M23.151,464.915l87.801-49.526  l133.02,177.018L23.151,464.915z M126.518,413.323h289.934L271.485,606.238L126.518,413.323z M298.997,592.407l133.021-177.019  l87.8,49.526L298.997,592.407z M526.795,453.138l-87.941-49.605l87.941-205.784V453.138z"/>
</svg>
