<?xml version="1.0" encoding="UTF-8"?>
<!DOCTYPE svg PUBLIC "-//W3C//DTD SVG 1.1//EN" "http://www.w3.org/Graphics/SVG/1.1/DTD/svg11.dtd">
<svg xmlns="http://www.w3.org/2000/svg" width="233mm" height="218mm" viewBox="0 0 8500 11000">
 <defs>
  <style type="text/css">
   <![CDATA[
    .boxColor {fill:#5d9eca; fill-rule:nonzero}
    /* 1. FONT SIZE: Changed to 3000 to fill the face. 
       2. FONT COLOR: Set to Dark Grey (#373435) */
    .numStyle {fill:#5d9eca; font-family:Arial, sans-serif; font-weight:bold; font-size:3000px;}
   ]]>
  </style>
 </defs>
 <g id="Layer_1">
  <!-- THE BOX DRAWING -->
  <path class="boxColor" d="M4250 5360.59l3871.68 -1935.83 -3871.68 -1935.84 -3871.69 1935.84 3871.69 1935.83zm4025 2137.5l0 -3871.68 -3900 1950 0 3871.68 3900 -1950zm250 -4073.33l0 4149.99 -0.52 0c-0.04,45.62 -25.24,89.54 -68.82,111.33l-4139.62 2069.81c-19.17,11.95 -41.8,18.86 -66.04,18.86 -24.25,0 -46.88,-6.91 -66.04,-18.86l-4129.07 -2064.54c-46.74,-18.09 -79.89,-63.48 -79.89,-116.61l0 -4149.99 0.52 0 0.01 -1.76 0.02 -0.88 0.02 -0.88 0.02 -0.6 0.01 -0.28c0.57,-16.33 4.37,-32.8 11.72,-48.46l0.13 -0.28 0.03 -0.07 0.37 -0.77 0.68 -1.39c2.39,-4.82 5.1,-9.5 8.11,-14l0.07 -0.11c0.55,-0.82 1.12,-1.64 1.69,-2.45l0.12 -0.17c0.54,-0.77 1.09,-1.53 1.66,-2.28l0.33 -0.43 1.5 -1.95 0.51 -0.64 1.34 -1.67 0.68 -0.81 1.39 -1.63 0.59 -0.67 1.29 -1.45 0.94 -1.03 1.15 -1.22 0.95 -0.98 1.13 -1.15 1.15 -1.13 0.98 -0.95 1.22 -1.15 1.03 -0.94 1.45 -1.29 0.67 -0.59 1.63 -1.39 0.81 -0.68 1.67 -1.34 0.64 -0.51 1.95 -1.5 0.43 -0.33 2.28 -1.66 0.17 -0.12c0.81,-0.57 1.63,-1.14 2.45,-1.69l0.11 -0.07c4.48,-3 9.14,-5.7 13.94,-8.09l4149.19 -2074.6c33.94,-17.16 75.28,-18.6 111.91,-0.29l4139.45 2069.73c46.74,18.1 79.88,63.48 79.88,116.6zm-4400 6023.33l0 -3871.68 -1329.78 -664.89 -2570.22 -1285.1 0 3871.67 3900 1950z"/>

  <!-- THE EDITABLE NUMBER (Right Front Face) -->
  <g transform="translate(6325, 6800) skewY(-26.5)">
    <text x="0" y="0" class="numStyle" text-anchor="middle" dominant-baseline="middle">5</text>
  </g>
 </g>
</svg>