<?xml version="1.0" encoding="UTF-8"?>
<!DOCTYPE svg PUBLIC "-//W3C//DTD SVG 1.1//EN" "http://www.w3.org/Graphics/SVG/1.1/DTD/svg11.dtd">
<!-- Creator: CorelDRAW 2019 (64-Bit) -->
<svg xmlns="http://www.w3.org/2000/svg" xml:space="preserve" width="8.5in" height="11in" version="1.1" style="shape-rendering:geometricPrecision; text-rendering:geometricPrecision; image-rendering:optimizeQuality; fill-rule:evenodd; clip-rule:evenodd"
viewBox="0 0 8500 11000"
 xmlns:xlink="http://www.w3.org/1999/xlink">
 <defs>
  <style type="text/css">
   <![CDATA[
    .fil0 {fill:#5d9eca;fill-rule:nonzero}
   ]]>
  </style>
 </defs>
 <g id="Layer_x0020_1">
  <metadata id="CorelCorpID_0Corel-Layer"/>
  <path class="fil0" d="M4250.46 4524.35c-234.72,0 -424.54,-16.76 -568.06,-50.27 -143.98,-33.83 -254.63,-83.78 -331.94,-150.17 -77.31,-66.06 -115.74,-149.52 -115.74,-250.06 0,-74.12 21.3,-139.21 64.35,-195.61 43.06,-56.07 105.09,-102.48 186.11,-138.57 80.56,-36.09 179.17,-64.45 295.37,-85.07 116.2,-20.94 274.33,-52.74 469.91,-31.26 74.62,8.2 144.69,14.1 210.19,19.02 139.31,10.47 257.93,16.54 355.55,30.92 143.98,33.19 254.63,83.14 332.41,149.52 77.78,66.06 116.67,149.85 116.67,251.04 0,133.09 -68.06,237.82 -204.63,313.87 -166.67,91.2 -436.57,136.63 -810.19,136.63zm31.29 1323.88c-293.4,0 -530.67,-20.94 -710.07,-62.83 -179.98,-42.3 -318.29,-104.73 -414.93,-187.71 -96.65,-82.57 -144.68,-186.91 -144.68,-312.58 0,-92.65 26.62,-174.02 80.44,-244.51 53.82,-70.09 131.37,-128.09 232.64,-173.21 100.7,-45.11 223.96,-80.56 369.21,-106.34 145.26,-26.18 341.44,-39.07 587.39,-39.07 291.67,0 527.78,20.95 707.17,62.44 179.98,41.49 318.29,103.93 415.51,186.91 97.22,82.58 145.83,187.31 145.83,313.79 0,166.36 -85.07,297.28 -255.79,392.34 -208.33,114 -545.72,170.79 -1012.73,170.79zm-30.37 -1497.89c327.31,0 544.91,-26.43 652.31,-79.6 107.87,-53.17 161.57,-118.91 161.57,-196.89 0,-77.98 -54.17,-143.72 -162.04,-196.9 -108.33,-53.17 -325.46,-79.59 -651.85,-79.59 -327.31,0 -544.91,26.43 -652.31,79.59 -107.87,52.85 -161.57,119.23 -161.57,198.83 0,77.98 47.69,140.5 142.59,187.23 120.83,58.32 344.91,87.33 671.3,87.33zm31.52 1280.38c409.14,0 681.13,-33.03 815.39,-99.5 134.83,-66.46 201.96,-148.64 201.96,-246.12 0,-97.48 -67.71,-179.65 -202.54,-246.12 -135.42,-66.46 -406.83,-99.5 -814.81,-99.5 -409.15,0 -681.13,33.03 -815.39,99.5 -134.84,66.06 -201.97,149.04 -201.97,248.54 0,97.48 59.61,175.63 178.24,234.04 151.04,72.91 431.13,109.16 839.12,109.16zm-3526.64 366.23l1190.31 -320.75 2178.34 1387.57 0 2285.8 -3368.65 -3352.61zm3493.65 851.26l-2118.18 -1349.24 635.7 -1167.08 1482.48 -2721.69 2118.18 3888.77 -2118.18 1349.24zm0 2926.61c37.82,0 71.72,-16.8 94.65,-43.35l3721.75 -3704.01c29.41,-25.31 46.65,-63.92 43.06,-105.53l-123.86 -1401.18 -0.08 0.01c-2.66,-30.92 -16.78,-60.9 -41.91,-83.02l-3611.09 -3181.67 -0.18 0.2c-46.04,-40.63 -116.17,-41.98 -163.89,-0.69l-3672.99 3181.67c-25.03,21.67 -41.43,53.19 -42.97,88.87l-61.59 1393.39c-1.57,14.81 -0.51,30.14 3.56,45.39 6.56,24.55 20,45.41 37.69,61.1l3723.2 3705.48c22.92,26.54 56.82,43.34 94.64,43.34zm125 -2711.06l2178.34 -1387.57 1190.33 320.75 -3368.67 3352.62 0 -2285.8zm-2491.83 -1629.04l-1236.06 333.08 52.04 -1177.24 3112.31 -2695.99 -1773.44 3255.87 -154.84 284.28zm4733.66 0l-169.89 -311.91 -1749.91 -3212.67 3043.96 2681.98 103.73 1173.46 -192.34 -51.83 -1035.54 -279.04z"/>
 </g>
</svg>
