<?xml version="1.0" encoding="UTF-8"?>
<!DOCTYPE svg PUBLIC "-//W3C//DTD SVG 1.1//EN" "http://www.w3.org/Graphics/SVG/1.1/DTD/svg11.dtd">
<!-- Creator: CorelDRAW 2019 (64-Bit) -->
<svg xmlns="http://www.w3.org/2000/svg" xml:space="preserve" width="233mm" height="218mm" version="1.1" style="shape-rendering:geometricPrecision; text-rendering:geometricPrecision; image-rendering:optimizeQuality; fill-rule:evenodd; clip-rule:evenodd"
viewBox="0 0 8500 11000" xmlns:xlink="http://www.w3.org/1999/xlink">
 <defs>
  <style type="text/css">
   <![CDATA[
    .fil0 {fill:#5d9eca;fill-rule:nonzero}
    /* Controls the Number Appearance */
    .numStyle {fill:#5d9eca; font-family:Arial, sans-serif; font-weight:bold; font-size:3000px;}
   ]]>
  </style>
 </defs>
 <g id="Layer_x0020_1">
  <metadata id="CorelCorpID_0Corel-Layer"/>
  
  <!-- THE DIE DRAWING -->
  <path class="fil0" d="M7610.95 7450.01l-3360.95 -5850.17 -3360.95 5850.17 6721.91 0zm-3296.78 -6206.95l3574.64 2074.03c39.88,23.1 62.18,64.91 62.22,107.91l0.28 0 0 4150c0,17.26 -3.5,33.7 -9.83,48.66l-0.01 0.02c-1.14,2.69 -2.37,5.33 -3.69,7.92l-0.31 0.61 -1.26 2.39 -0.02 0.03c-0.93,1.71 -1.91,3.4 -2.91,5.06l-0.14 0.23c-0.48,0.78 -0.96,1.56 -1.45,2.33l-0.37 0.57 -1.04 1.57 -0.61 0.9 -1.44 2.07 -0.01 0.01 -0.03 0.04c-0.53,0.74 -1.06,1.47 -1.6,2.2l-0.37 0.5 -1.3 1.69 -0.3 0.39 -0.3 0.38 -1.35 1.67 -0.05 0.06 -0.79 0.94 -0.84 0.99 -0.91 1.05 -0.94 1.06 -0.64 0.72 -0.04 0.04 -1.46 1.57 -0.17 0.17 -1.07 1.11 -0.58 0.59 -1.17 1.18 -0.02 0.02 -1.54 1.5 -1.48 1.39 -0.13 0.12 -1.42 1.29 -0.52 0.46c-1.42,1.26 -2.87,2.49 -4.34,3.68l-0.38 0.31 -1.46 1.16 -1.7 1.31 -1.66 1.23 -0.1 0.07c-5.81,4.22 -12,7.94 -18.5,11.12l-1780.51 1032.95 -1788.09 1037.57c-40.64,23.54 -89.04,21.56 -126.67,-0.97l-3574.64 -2074.03c-39.88,-23.1 -62.18,-64.91 -62.22,-107.91l-0.28 0 0 -4150c0,-49.35 28.61,-92.02 70.14,-112.34l1780.59 -1032.99 1788.09 -1037.57c40.64,-23.54 89.04,-21.56 126.67,0.97zm275.36 448.11l3111.78 5416.45 0 -3610.97 -1725.73 -1001.31 -1386.05 -804.17zm2772.79 6008.85l-6224.7 0 3112.37 1805.81 1725.59 -1001.31 1386.74 -804.5zm-6563.64 -592.4l3111.75 -5416.39 -1386.02 804.27 -1725.73 1001.17 0 3610.96z"/>

  <!-- THE EDITABLE NUMBER (Center Face) -->
  <g transform="translate(4250, 5500)">
    <text x="0" y="0" class="numStyle" text-anchor="middle" dominant-baseline="middle">2</text>
  </g>
 </g>
</svg>